%TF.GenerationSoftware,KiCad,Pcbnew,(6.0.0-rc1-29-g9238b27f63)*%
%TF.CreationDate,2021-12-03T12:49:23+01:00*%
%TF.ProjectId,robolympics_hub,726f626f-6c79-46d7-9069-63735f687562,rev?*%
%TF.SameCoordinates,Original*%
%TF.FileFunction,Soldermask,Top*%
%TF.FilePolarity,Negative*%
%FSLAX46Y46*%
G04 Gerber Fmt 4.6, Leading zero omitted, Abs format (unit mm)*
G04 Created by KiCad (PCBNEW (6.0.0-rc1-29-g9238b27f63)) date 2021-12-03 12:49:23*
%MOMM*%
%LPD*%
G01*
G04 APERTURE LIST*
G04 Aperture macros list*
%AMRoundRect*
0 Rectangle with rounded corners*
0 $1 Rounding radius*
0 $2 $3 $4 $5 $6 $7 $8 $9 X,Y pos of 4 corners*
0 Add a 4 corners polygon primitive as box body*
4,1,4,$2,$3,$4,$5,$6,$7,$8,$9,$2,$3,0*
0 Add four circle primitives for the rounded corners*
1,1,$1+$1,$2,$3*
1,1,$1+$1,$4,$5*
1,1,$1+$1,$6,$7*
1,1,$1+$1,$8,$9*
0 Add four rect primitives between the rounded corners*
20,1,$1+$1,$2,$3,$4,$5,0*
20,1,$1+$1,$4,$5,$6,$7,0*
20,1,$1+$1,$6,$7,$8,$9,0*
20,1,$1+$1,$8,$9,$2,$3,0*%
G04 Aperture macros list end*
%ADD10RoundRect,0.250000X1.075000X-0.375000X1.075000X0.375000X-1.075000X0.375000X-1.075000X-0.375000X0*%
%ADD11R,0.600000X0.350000*%
%ADD12R,1.100000X1.700000*%
%ADD13RoundRect,0.250000X0.620000X0.845000X-0.620000X0.845000X-0.620000X-0.845000X0.620000X-0.845000X0*%
%ADD14O,1.740000X2.190000*%
%ADD15RoundRect,0.218750X-0.256250X0.218750X-0.256250X-0.218750X0.256250X-0.218750X0.256250X0.218750X0*%
%ADD16RoundRect,0.200000X-0.200000X-0.275000X0.200000X-0.275000X0.200000X0.275000X-0.200000X0.275000X0*%
%ADD17RoundRect,0.250000X0.550000X-1.500000X0.550000X1.500000X-0.550000X1.500000X-0.550000X-1.500000X0*%
%ADD18R,1.700000X1.700000*%
%ADD19O,1.700000X1.700000*%
%ADD20RoundRect,0.218750X0.218750X0.256250X-0.218750X0.256250X-0.218750X-0.256250X0.218750X-0.256250X0*%
%ADD21RoundRect,0.218750X-0.218750X-0.256250X0.218750X-0.256250X0.218750X0.256250X-0.218750X0.256250X0*%
%ADD22R,0.700000X0.700000*%
%ADD23R,1.525000X0.650000*%
%ADD24R,2.400000X3.100000*%
%ADD25RoundRect,0.243750X-0.456250X0.243750X-0.456250X-0.243750X0.456250X-0.243750X0.456250X0.243750X0*%
%ADD26R,1.400000X1.390000*%
%ADD27R,4.860000X3.360000*%
%ADD28RoundRect,0.250000X-0.600000X-0.725000X0.600000X-0.725000X0.600000X0.725000X-0.600000X0.725000X0*%
%ADD29O,1.700000X1.950000*%
%ADD30C,5.400000*%
%ADD31RoundRect,0.250000X-0.620000X-0.845000X0.620000X-0.845000X0.620000X0.845000X-0.620000X0.845000X0*%
%ADD32R,1.060000X0.650000*%
%ADD33RoundRect,0.250000X0.625000X-0.375000X0.625000X0.375000X-0.625000X0.375000X-0.625000X-0.375000X0*%
%ADD34RoundRect,0.250000X-0.845000X0.620000X-0.845000X-0.620000X0.845000X-0.620000X0.845000X0.620000X0*%
%ADD35O,2.190000X1.740000*%
%ADD36RoundRect,0.250000X-1.100000X0.325000X-1.100000X-0.325000X1.100000X-0.325000X1.100000X0.325000X0*%
%ADD37C,0.650000*%
%ADD38O,2.216000X1.108000*%
%ADD39R,2.025000X2.025000*%
%ADD40C,2.025000*%
%ADD41R,1.000000X0.900000*%
%ADD42R,0.800000X1.700000*%
%ADD43RoundRect,0.147500X0.147500X0.172500X-0.147500X0.172500X-0.147500X-0.172500X0.147500X-0.172500X0*%
%ADD44RoundRect,0.218750X0.256250X-0.218750X0.256250X0.218750X-0.256250X0.218750X-0.256250X-0.218750X0*%
%ADD45RoundRect,0.075000X0.075000X-0.700000X0.075000X0.700000X-0.075000X0.700000X-0.075000X-0.700000X0*%
%ADD46RoundRect,0.075000X0.700000X-0.075000X0.700000X0.075000X-0.700000X0.075000X-0.700000X-0.075000X0*%
%ADD47RoundRect,0.250000X-0.475000X0.250000X-0.475000X-0.250000X0.475000X-0.250000X0.475000X0.250000X0*%
%ADD48R,3.300000X3.050000*%
%ADD49RoundRect,0.250000X1.100000X-0.325000X1.100000X0.325000X-1.100000X0.325000X-1.100000X-0.325000X0*%
%ADD50RoundRect,0.200000X-0.275000X0.200000X-0.275000X-0.200000X0.275000X-0.200000X0.275000X0.200000X0*%
G04 APERTURE END LIST*
D10*
%TO.C,C13*%
X184000000Y-65400000D03*
X184000000Y-62600000D03*
%TD*%
D11*
%TO.C,IC1*%
X183550000Y-88100000D03*
X183550000Y-87450000D03*
X183550000Y-86800000D03*
X181450000Y-86800000D03*
X181450000Y-87450000D03*
X181450000Y-88100000D03*
D12*
X182500000Y-87450000D03*
%TD*%
D13*
%TO.C,J19*%
X174060000Y-116750000D03*
D14*
X171520000Y-116750000D03*
X168980000Y-116750000D03*
X166440000Y-116750000D03*
%TD*%
D10*
%TO.C,C11*%
X180750000Y-65400000D03*
X180750000Y-62600000D03*
%TD*%
D15*
%TO.C,D6*%
X171760000Y-86702500D03*
X171760000Y-88277500D03*
%TD*%
D16*
%TO.C,R7*%
X203175000Y-97250000D03*
X204825000Y-97250000D03*
%TD*%
D13*
%TO.C,J23*%
X208600000Y-125000000D03*
D14*
X206060000Y-125000000D03*
X203520000Y-125000000D03*
X200980000Y-125000000D03*
X198440000Y-125000000D03*
X195900000Y-125000000D03*
%TD*%
D13*
%TO.C,J4*%
X171740000Y-108580000D03*
D14*
X169200000Y-108580000D03*
X166660000Y-108580000D03*
%TD*%
D17*
%TO.C,C23*%
X167200000Y-67800000D03*
X167200000Y-62200000D03*
%TD*%
D18*
%TO.C,J3*%
X160000000Y-107000000D03*
D19*
X160000000Y-109540000D03*
X160000000Y-112080000D03*
X160000000Y-114620000D03*
X160000000Y-117160000D03*
%TD*%
D20*
%TO.C,C8*%
X176625500Y-82045000D03*
X175050500Y-82045000D03*
%TD*%
D21*
%TO.C,C1*%
X198962500Y-93000000D03*
X200537500Y-93000000D03*
%TD*%
D20*
%TO.C,C31*%
X196787500Y-108000000D03*
X195212500Y-108000000D03*
%TD*%
D22*
%TO.C,U5*%
X166085000Y-98950000D03*
X166085000Y-100050000D03*
X167915000Y-100050000D03*
X167915000Y-98950000D03*
%TD*%
D13*
%TO.C,J7*%
X220810000Y-116730000D03*
D14*
X218270000Y-116730000D03*
X215730000Y-116730000D03*
X213190000Y-116730000D03*
%TD*%
D23*
%TO.C,IC2*%
X172376000Y-76390000D03*
X172376000Y-77660000D03*
X172376000Y-78930000D03*
X172376000Y-80200000D03*
X177800000Y-80200000D03*
X177800000Y-78930000D03*
X177800000Y-77660000D03*
X177800000Y-76390000D03*
D24*
X175088000Y-78295000D03*
%TD*%
D25*
%TO.C,C7*%
X166888000Y-79107500D03*
X166888000Y-80982500D03*
%TD*%
D20*
%TO.C,C26*%
X188537500Y-106000000D03*
X186962500Y-106000000D03*
%TD*%
D26*
%TO.C,D1*%
X172281310Y-72369810D03*
X172281310Y-74209810D03*
D27*
X176263310Y-73289810D03*
%TD*%
D28*
%TO.C,J9*%
X196250000Y-70750000D03*
D29*
X198750000Y-70750000D03*
X201250000Y-70750000D03*
%TD*%
D30*
%TO.C,H4*%
X160000000Y-125000000D03*
%TD*%
D15*
%TO.C,R2*%
X197450000Y-80012500D03*
X197450000Y-81587500D03*
%TD*%
D20*
%TO.C,C25*%
X187537500Y-93500000D03*
X185962500Y-93500000D03*
%TD*%
D31*
%TO.C,J27*%
X214730000Y-72420000D03*
D14*
X217270000Y-72420000D03*
%TD*%
D20*
%TO.C,R6*%
X176625500Y-83545000D03*
X175050500Y-83545000D03*
%TD*%
D32*
%TO.C,U2*%
X165900000Y-89250000D03*
X165900000Y-90200000D03*
X165900000Y-91150000D03*
X168100000Y-91150000D03*
X168100000Y-90200000D03*
X168100000Y-89250000D03*
%TD*%
D13*
%TO.C,J20*%
X220810000Y-125000000D03*
D14*
X218270000Y-125000000D03*
X215730000Y-125000000D03*
X213190000Y-125000000D03*
%TD*%
D13*
%TO.C,J22*%
X208600000Y-116750000D03*
D14*
X206060000Y-116750000D03*
X203520000Y-116750000D03*
X200980000Y-116750000D03*
X198440000Y-116750000D03*
X195900000Y-116750000D03*
%TD*%
D15*
%TO.C,R1*%
X165800000Y-93012500D03*
X165800000Y-94587500D03*
%TD*%
D21*
%TO.C,R4*%
X172050500Y-82045000D03*
X173625500Y-82045000D03*
%TD*%
D33*
%TO.C,C3*%
X166500000Y-85900000D03*
X166500000Y-83100000D03*
%TD*%
D15*
%TO.C,R5*%
X178338000Y-82007500D03*
X178338000Y-83582500D03*
%TD*%
D18*
%TO.C,J11*%
X158670000Y-100000000D03*
D19*
X161210000Y-100000000D03*
%TD*%
D34*
%TO.C,J16*%
X240000000Y-106920000D03*
D35*
X240000000Y-109460000D03*
X240000000Y-112000000D03*
X240000000Y-114540000D03*
%TD*%
D30*
%TO.C,H3*%
X160000000Y-65000000D03*
%TD*%
D36*
%TO.C,C6*%
X169588000Y-79070000D03*
X169588000Y-82020000D03*
%TD*%
D37*
%TO.C,J28*%
X163775000Y-87275000D03*
X163775000Y-88125000D03*
X163775000Y-88975000D03*
X163775000Y-89825000D03*
X163775000Y-90675000D03*
X163775000Y-91525000D03*
X163775000Y-92375000D03*
X163775000Y-93225000D03*
X162425000Y-93225000D03*
X162425000Y-92375000D03*
X162425000Y-91525000D03*
X162425000Y-90675000D03*
X162425000Y-89825000D03*
X162425000Y-88975000D03*
X162425000Y-88125000D03*
X162425000Y-87275000D03*
D38*
X162795000Y-85925000D03*
X162795000Y-94575000D03*
X159415000Y-94575000D03*
X159415000Y-85925000D03*
%TD*%
D17*
%TO.C,C24*%
X174600000Y-67800000D03*
X174600000Y-62200000D03*
%TD*%
D31*
%TO.C,J26*%
X207930000Y-64900000D03*
D14*
X210470000Y-64900000D03*
%TD*%
D15*
%TO.C,R3*%
X199000000Y-79962500D03*
X199000000Y-81537500D03*
%TD*%
D34*
%TO.C,J12*%
X240000000Y-82920000D03*
D35*
X240000000Y-85460000D03*
X240000000Y-88000000D03*
X240000000Y-90540000D03*
%TD*%
D39*
%TO.C,J21*%
X163500000Y-77687500D03*
D40*
X163500000Y-74187500D03*
%TD*%
D41*
%TO.C,S2*%
X231625000Y-103450000D03*
X231625000Y-99350000D03*
X230025000Y-99350000D03*
X230025000Y-103450000D03*
D42*
X232275000Y-101400000D03*
%TD*%
D30*
%TO.C,H2*%
X240000000Y-125000000D03*
%TD*%
D20*
%TO.C,R16*%
X191287500Y-91500000D03*
X189712500Y-91500000D03*
%TD*%
D43*
%TO.C,D3*%
X222535000Y-84600000D03*
X221565000Y-84600000D03*
%TD*%
D44*
%TO.C,C10*%
X170338000Y-73582500D03*
X170338000Y-72007500D03*
%TD*%
D45*
%TO.C,U1*%
X190000000Y-105175000D03*
X190500000Y-105175000D03*
X191000000Y-105175000D03*
X191500000Y-105175000D03*
X192000000Y-105175000D03*
X192500000Y-105175000D03*
X193000000Y-105175000D03*
X193500000Y-105175000D03*
X194000000Y-105175000D03*
X194500000Y-105175000D03*
X195000000Y-105175000D03*
X195500000Y-105175000D03*
X196000000Y-105175000D03*
X196500000Y-105175000D03*
X197000000Y-105175000D03*
X197500000Y-105175000D03*
D46*
X199425000Y-103250000D03*
X199425000Y-102750000D03*
X199425000Y-102250000D03*
X199425000Y-101750000D03*
X199425000Y-101250000D03*
X199425000Y-100750000D03*
X199425000Y-100250000D03*
X199425000Y-99750000D03*
X199425000Y-99250000D03*
X199425000Y-98750000D03*
X199425000Y-98250000D03*
X199425000Y-97750000D03*
X199425000Y-97250000D03*
X199425000Y-96750000D03*
X199425000Y-96250000D03*
X199425000Y-95750000D03*
D45*
X197500000Y-93825000D03*
X197000000Y-93825000D03*
X196500000Y-93825000D03*
X196000000Y-93825000D03*
X195500000Y-93825000D03*
X195000000Y-93825000D03*
X194500000Y-93825000D03*
X194000000Y-93825000D03*
X193500000Y-93825000D03*
X193000000Y-93825000D03*
X192500000Y-93825000D03*
X192000000Y-93825000D03*
X191500000Y-93825000D03*
X191000000Y-93825000D03*
X190500000Y-93825000D03*
X190000000Y-93825000D03*
D46*
X188075000Y-95750000D03*
X188075000Y-96250000D03*
X188075000Y-96750000D03*
X188075000Y-97250000D03*
X188075000Y-97750000D03*
X188075000Y-98250000D03*
X188075000Y-98750000D03*
X188075000Y-99250000D03*
X188075000Y-99750000D03*
X188075000Y-100250000D03*
X188075000Y-100750000D03*
X188075000Y-101250000D03*
X188075000Y-101750000D03*
X188075000Y-102250000D03*
X188075000Y-102750000D03*
X188075000Y-103250000D03*
%TD*%
D47*
%TO.C,C4*%
X185600000Y-86900000D03*
X185600000Y-88800000D03*
%TD*%
D34*
%TO.C,J17*%
X240000000Y-70920000D03*
D35*
X240000000Y-73460000D03*
X240000000Y-76000000D03*
X240000000Y-78540000D03*
%TD*%
D13*
%TO.C,J15*%
X232870000Y-125000000D03*
D14*
X230330000Y-125000000D03*
X227790000Y-125000000D03*
X225250000Y-125000000D03*
%TD*%
D48*
%TO.C,L2*%
X181200000Y-73250000D03*
X189600000Y-73250000D03*
%TD*%
D43*
%TO.C,D5*%
X216535000Y-80350000D03*
X215565000Y-80350000D03*
%TD*%
D10*
%TO.C,C14*%
X187250000Y-65400000D03*
X187250000Y-62600000D03*
%TD*%
D30*
%TO.C,H1*%
X240000000Y-65000000D03*
%TD*%
D31*
%TO.C,J1*%
X207930000Y-72420000D03*
D14*
X210470000Y-72420000D03*
%TD*%
D13*
%TO.C,J18*%
X174120000Y-124980000D03*
D14*
X171580000Y-124980000D03*
X169040000Y-124980000D03*
X166500000Y-124980000D03*
%TD*%
D25*
%TO.C,C30*%
X202450000Y-93762500D03*
X202450000Y-95637500D03*
%TD*%
D41*
%TO.C,S1*%
X225825000Y-103450000D03*
X225825000Y-99350000D03*
X224225000Y-99350000D03*
X224225000Y-103450000D03*
D42*
X226475000Y-101400000D03*
%TD*%
D44*
%TO.C,C28*%
X185500000Y-105287500D03*
X185500000Y-103712500D03*
%TD*%
D10*
%TO.C,C12*%
X190500000Y-65400000D03*
X190500000Y-62600000D03*
%TD*%
D28*
%TO.C,J10*%
X196250000Y-65500000D03*
D29*
X198750000Y-65500000D03*
X201250000Y-65500000D03*
%TD*%
D23*
%TO.C,U3*%
X185962000Y-83905000D03*
X185962000Y-82635000D03*
X185962000Y-81365000D03*
X185962000Y-80095000D03*
X180538000Y-80095000D03*
X180538000Y-81365000D03*
X180538000Y-82635000D03*
X180538000Y-83905000D03*
%TD*%
D28*
%TO.C,J8*%
X196250000Y-76000000D03*
D29*
X198750000Y-76000000D03*
X201250000Y-76000000D03*
%TD*%
D31*
%TO.C,J5*%
X221450000Y-65020000D03*
D14*
X223990000Y-65020000D03*
X226530000Y-65020000D03*
X229070000Y-65020000D03*
X231610000Y-65020000D03*
X234150000Y-65020000D03*
%TD*%
D31*
%TO.C,J25*%
X214730000Y-65020000D03*
D14*
X217270000Y-65020000D03*
%TD*%
D49*
%TO.C,C5*%
X167838000Y-74520000D03*
X167838000Y-71570000D03*
%TD*%
D13*
%TO.C,J24*%
X191330000Y-125000000D03*
D14*
X188790000Y-125000000D03*
X186250000Y-125000000D03*
X183710000Y-125000000D03*
X181170000Y-125000000D03*
X178630000Y-125000000D03*
%TD*%
D13*
%TO.C,J6*%
X191330000Y-116750000D03*
D14*
X188790000Y-116750000D03*
X186250000Y-116750000D03*
X183710000Y-116750000D03*
X181170000Y-116750000D03*
X178630000Y-116750000D03*
%TD*%
D47*
%TO.C,C9*%
X177400000Y-86900000D03*
X177400000Y-88800000D03*
%TD*%
D34*
%TO.C,J13*%
X240000000Y-94920000D03*
D35*
X240000000Y-97460000D03*
X240000000Y-100000000D03*
X240000000Y-102540000D03*
%TD*%
D47*
%TO.C,C2*%
X179600000Y-86900000D03*
X179600000Y-88800000D03*
%TD*%
D43*
%TO.C,D4*%
X212535000Y-84600000D03*
X211565000Y-84600000D03*
%TD*%
D50*
%TO.C,R9*%
X173500000Y-86675000D03*
X173500000Y-88325000D03*
%TD*%
D13*
%TO.C,J14*%
X232870000Y-116750000D03*
D14*
X230330000Y-116750000D03*
X227790000Y-116750000D03*
X225250000Y-116750000D03*
%TD*%
D20*
%TO.C,R17*%
X191287500Y-90000000D03*
X189712500Y-90000000D03*
%TD*%
D44*
%TO.C,C27*%
X202750000Y-104287500D03*
X202750000Y-102712500D03*
%TD*%
M02*
