%TF.GenerationSoftware,KiCad,Pcbnew,(6.0.0-rc1-29-g9238b27f63)*%
%TF.CreationDate,2021-12-03T12:49:23+01:00*%
%TF.ProjectId,robolympics_hub,726f626f-6c79-46d7-9069-63735f687562,rev?*%
%TF.SameCoordinates,Original*%
%TF.FileFunction,Paste,Bot*%
%TF.FilePolarity,Positive*%
%FSLAX46Y46*%
G04 Gerber Fmt 4.6, Leading zero omitted, Abs format (unit mm)*
G04 Created by KiCad (PCBNEW (6.0.0-rc1-29-g9238b27f63)) date 2021-12-03 12:49:23*
%MOMM*%
%LPD*%
G01*
G04 APERTURE LIST*
G04 Aperture macros list*
%AMRoundRect*
0 Rectangle with rounded corners*
0 $1 Rounding radius*
0 $2 $3 $4 $5 $6 $7 $8 $9 X,Y pos of 4 corners*
0 Add a 4 corners polygon primitive as box body*
4,1,4,$2,$3,$4,$5,$6,$7,$8,$9,$2,$3,0*
0 Add four circle primitives for the rounded corners*
1,1,$1+$1,$2,$3*
1,1,$1+$1,$4,$5*
1,1,$1+$1,$6,$7*
1,1,$1+$1,$8,$9*
0 Add four rect primitives between the rounded corners*
20,1,$1+$1,$2,$3,$4,$5,0*
20,1,$1+$1,$4,$5,$6,$7,0*
20,1,$1+$1,$6,$7,$8,$9,0*
20,1,$1+$1,$8,$9,$2,$3,0*%
G04 Aperture macros list end*
%ADD10R,1.060000X0.650000*%
%ADD11R,0.450000X1.100000*%
%ADD12R,0.500000X1.250000*%
%ADD13RoundRect,0.218750X0.218750X0.256250X-0.218750X0.256250X-0.218750X-0.256250X0.218750X-0.256250X0*%
%ADD14RoundRect,0.218750X-0.218750X-0.256250X0.218750X-0.256250X0.218750X0.256250X-0.218750X0.256250X0*%
%ADD15RoundRect,0.200000X-0.275000X0.200000X-0.275000X-0.200000X0.275000X-0.200000X0.275000X0.200000X0*%
%ADD16RoundRect,0.218750X0.256250X-0.218750X0.256250X0.218750X-0.256250X0.218750X-0.256250X-0.218750X0*%
%ADD17RoundRect,0.218750X-0.256250X0.218750X-0.256250X-0.218750X0.256250X-0.218750X0.256250X0.218750X0*%
%ADD18R,0.550000X1.050000*%
%ADD19RoundRect,0.250000X-0.250000X-0.475000X0.250000X-0.475000X0.250000X0.475000X-0.250000X0.475000X0*%
%ADD20R,0.800000X0.800000*%
%ADD21R,1.100000X0.500000*%
%ADD22RoundRect,0.200000X0.200000X0.275000X-0.200000X0.275000X-0.200000X-0.275000X0.200000X-0.275000X0*%
G04 APERTURE END LIST*
D10*
%TO.C,U4*%
X170600000Y-102050000D03*
X170600000Y-103000000D03*
X170600000Y-103950000D03*
X168400000Y-103950000D03*
X168400000Y-103000000D03*
X168400000Y-102050000D03*
%TD*%
D11*
%TO.C,IC7*%
X232075000Y-110700000D03*
X231425000Y-110700000D03*
X230775000Y-110700000D03*
X230125000Y-110700000D03*
X230125000Y-106800000D03*
X230775000Y-106800000D03*
X231425000Y-106800000D03*
X232075000Y-106800000D03*
%TD*%
D12*
%TO.C,IC4*%
X195250000Y-79775484D03*
X196200000Y-79775484D03*
X197150000Y-79775484D03*
X197150000Y-82275484D03*
X195250000Y-82275484D03*
%TD*%
D13*
%TO.C,R18*%
X208287500Y-84000000D03*
X206712500Y-84000000D03*
%TD*%
D14*
%TO.C,C17*%
X232312500Y-105100000D03*
X233887500Y-105100000D03*
%TD*%
D15*
%TO.C,R10*%
X175000000Y-107675000D03*
X175000000Y-109325000D03*
%TD*%
D16*
%TO.C,C19*%
X226500000Y-108287500D03*
X226500000Y-106712500D03*
%TD*%
D13*
%TO.C,R20*%
X208300000Y-82500000D03*
X206725000Y-82500000D03*
%TD*%
D16*
%TO.C,C20*%
X234000000Y-108287500D03*
X234000000Y-106712500D03*
%TD*%
D17*
%TO.C,C29*%
X202700000Y-79737984D03*
X202700000Y-81312984D03*
%TD*%
%TO.C,R13*%
X234000000Y-109712500D03*
X234000000Y-111287500D03*
%TD*%
D14*
%TO.C,C18*%
X224812500Y-105050000D03*
X226387500Y-105050000D03*
%TD*%
D17*
%TO.C,R12*%
X226500000Y-109712500D03*
X226500000Y-111287500D03*
%TD*%
D11*
%TO.C,IC6*%
X224575000Y-110750000D03*
X223925000Y-110750000D03*
X223275000Y-110750000D03*
X222625000Y-110750000D03*
X222625000Y-106850000D03*
X223275000Y-106850000D03*
X223925000Y-106850000D03*
X224575000Y-106850000D03*
%TD*%
D18*
%TO.C,IC3*%
X182050000Y-75600000D03*
X183000000Y-75600000D03*
X183950000Y-75600000D03*
X183950000Y-78200000D03*
X183000000Y-78200000D03*
X182050000Y-78200000D03*
%TD*%
D19*
%TO.C,C15*%
X176800000Y-105750000D03*
X178700000Y-105750000D03*
%TD*%
D12*
%TO.C,IC5*%
X200900000Y-82275484D03*
X199950000Y-82275484D03*
X199000000Y-82275484D03*
X199000000Y-79775484D03*
X200900000Y-79775484D03*
%TD*%
D13*
%TO.C,R21*%
X200487500Y-78025484D03*
X198912500Y-78025484D03*
%TD*%
D20*
%TO.C,U6*%
X179250000Y-109250000D03*
X179250000Y-110250000D03*
X180250000Y-109250000D03*
X180250000Y-110250000D03*
D21*
X182650000Y-107845000D03*
X182650000Y-109115000D03*
X182650000Y-110385000D03*
X182650000Y-111655000D03*
X176850000Y-111655000D03*
X176850000Y-110385000D03*
X176850000Y-109115000D03*
X176850000Y-107845000D03*
%TD*%
D16*
%TO.C,C22*%
X228250000Y-108287500D03*
X228250000Y-106712500D03*
%TD*%
%TO.C,C21*%
X220750000Y-108287500D03*
X220750000Y-106712500D03*
%TD*%
D13*
%TO.C,R19*%
X208287500Y-85500000D03*
X206712500Y-85500000D03*
%TD*%
D17*
%TO.C,R14*%
X220750000Y-109712500D03*
X220750000Y-111287500D03*
%TD*%
%TO.C,R15*%
X228250000Y-109712500D03*
X228250000Y-111287500D03*
%TD*%
D15*
%TO.C,R8*%
X185750000Y-76675000D03*
X185750000Y-78325000D03*
%TD*%
D22*
%TO.C,R22*%
X178325000Y-113500000D03*
X176675000Y-113500000D03*
%TD*%
M02*
