%TF.GenerationSoftware,KiCad,Pcbnew,(6.0.0-rc1-29-g9238b27f63)*%
%TF.CreationDate,2021-12-03T12:49:23+01:00*%
%TF.ProjectId,robolympics_hub,726f626f-6c79-46d7-9069-63735f687562,rev?*%
%TF.SameCoordinates,Original*%
%TF.FileFunction,Soldermask,Bot*%
%TF.FilePolarity,Negative*%
%FSLAX46Y46*%
G04 Gerber Fmt 4.6, Leading zero omitted, Abs format (unit mm)*
G04 Created by KiCad (PCBNEW (6.0.0-rc1-29-g9238b27f63)) date 2021-12-03 12:49:23*
%MOMM*%
%LPD*%
G01*
G04 APERTURE LIST*
G04 Aperture macros list*
%AMRoundRect*
0 Rectangle with rounded corners*
0 $1 Rounding radius*
0 $2 $3 $4 $5 $6 $7 $8 $9 X,Y pos of 4 corners*
0 Add a 4 corners polygon primitive as box body*
4,1,4,$2,$3,$4,$5,$6,$7,$8,$9,$2,$3,0*
0 Add four circle primitives for the rounded corners*
1,1,$1+$1,$2,$3*
1,1,$1+$1,$4,$5*
1,1,$1+$1,$6,$7*
1,1,$1+$1,$8,$9*
0 Add four rect primitives between the rounded corners*
20,1,$1+$1,$2,$3,$4,$5,0*
20,1,$1+$1,$4,$5,$6,$7,0*
20,1,$1+$1,$6,$7,$8,$9,0*
20,1,$1+$1,$8,$9,$2,$3,0*%
G04 Aperture macros list end*
%ADD10RoundRect,0.250000X0.620000X0.845000X-0.620000X0.845000X-0.620000X-0.845000X0.620000X-0.845000X0*%
%ADD11O,1.740000X2.190000*%
%ADD12R,1.700000X1.700000*%
%ADD13O,1.700000X1.700000*%
%ADD14RoundRect,0.250000X-0.600000X-0.725000X0.600000X-0.725000X0.600000X0.725000X-0.600000X0.725000X0*%
%ADD15O,1.700000X1.950000*%
%ADD16C,5.400000*%
%ADD17RoundRect,0.250000X-0.620000X-0.845000X0.620000X-0.845000X0.620000X0.845000X-0.620000X0.845000X0*%
%ADD18RoundRect,0.250000X-0.845000X0.620000X-0.845000X-0.620000X0.845000X-0.620000X0.845000X0.620000X0*%
%ADD19O,2.190000X1.740000*%
%ADD20C,0.650000*%
%ADD21O,2.216000X1.108000*%
%ADD22R,2.025000X2.025000*%
%ADD23C,2.025000*%
%ADD24R,1.060000X0.650000*%
%ADD25R,0.450000X1.100000*%
%ADD26R,0.500000X1.250000*%
%ADD27RoundRect,0.218750X0.218750X0.256250X-0.218750X0.256250X-0.218750X-0.256250X0.218750X-0.256250X0*%
%ADD28RoundRect,0.218750X-0.218750X-0.256250X0.218750X-0.256250X0.218750X0.256250X-0.218750X0.256250X0*%
%ADD29RoundRect,0.200000X-0.275000X0.200000X-0.275000X-0.200000X0.275000X-0.200000X0.275000X0.200000X0*%
%ADD30RoundRect,0.218750X0.256250X-0.218750X0.256250X0.218750X-0.256250X0.218750X-0.256250X-0.218750X0*%
%ADD31RoundRect,0.218750X-0.256250X0.218750X-0.256250X-0.218750X0.256250X-0.218750X0.256250X0.218750X0*%
%ADD32R,0.550000X1.050000*%
%ADD33RoundRect,0.250000X-0.250000X-0.475000X0.250000X-0.475000X0.250000X0.475000X-0.250000X0.475000X0*%
%ADD34R,1.100000X0.500000*%
%ADD35R,2.000000X2.000000*%
%ADD36RoundRect,0.200000X0.200000X0.275000X-0.200000X0.275000X-0.200000X-0.275000X0.200000X-0.275000X0*%
G04 APERTURE END LIST*
D10*
%TO.C,J19*%
X174060000Y-116750000D03*
D11*
X171520000Y-116750000D03*
X168980000Y-116750000D03*
X166440000Y-116750000D03*
%TD*%
D10*
%TO.C,J23*%
X208600000Y-125000000D03*
D11*
X206060000Y-125000000D03*
X203520000Y-125000000D03*
X200980000Y-125000000D03*
X198440000Y-125000000D03*
X195900000Y-125000000D03*
%TD*%
D10*
%TO.C,J4*%
X171740000Y-108580000D03*
D11*
X169200000Y-108580000D03*
X166660000Y-108580000D03*
%TD*%
D12*
%TO.C,J3*%
X160000000Y-107000000D03*
D13*
X160000000Y-109540000D03*
X160000000Y-112080000D03*
X160000000Y-114620000D03*
X160000000Y-117160000D03*
%TD*%
D10*
%TO.C,J7*%
X220810000Y-116730000D03*
D11*
X218270000Y-116730000D03*
X215730000Y-116730000D03*
X213190000Y-116730000D03*
%TD*%
D14*
%TO.C,J9*%
X196250000Y-70750000D03*
D15*
X198750000Y-70750000D03*
X201250000Y-70750000D03*
%TD*%
D16*
%TO.C,H4*%
X160000000Y-125000000D03*
%TD*%
D17*
%TO.C,J27*%
X214730000Y-72420000D03*
D11*
X217270000Y-72420000D03*
%TD*%
D10*
%TO.C,J20*%
X220810000Y-125000000D03*
D11*
X218270000Y-125000000D03*
X215730000Y-125000000D03*
X213190000Y-125000000D03*
%TD*%
D10*
%TO.C,J22*%
X208600000Y-116750000D03*
D11*
X206060000Y-116750000D03*
X203520000Y-116750000D03*
X200980000Y-116750000D03*
X198440000Y-116750000D03*
X195900000Y-116750000D03*
%TD*%
D12*
%TO.C,J11*%
X158670000Y-100000000D03*
D13*
X161210000Y-100000000D03*
%TD*%
D18*
%TO.C,J16*%
X240000000Y-106920000D03*
D19*
X240000000Y-109460000D03*
X240000000Y-112000000D03*
X240000000Y-114540000D03*
%TD*%
D16*
%TO.C,H3*%
X160000000Y-65000000D03*
%TD*%
D20*
%TO.C,J28*%
X163775000Y-87275000D03*
X163775000Y-88125000D03*
X163775000Y-88975000D03*
X163775000Y-89825000D03*
X163775000Y-90675000D03*
X163775000Y-91525000D03*
X163775000Y-92375000D03*
X163775000Y-93225000D03*
X162425000Y-93225000D03*
X162425000Y-92375000D03*
X162425000Y-91525000D03*
X162425000Y-90675000D03*
X162425000Y-89825000D03*
X162425000Y-88975000D03*
X162425000Y-88125000D03*
X162425000Y-87275000D03*
D21*
X162795000Y-85925000D03*
X162795000Y-94575000D03*
X159415000Y-94575000D03*
X159415000Y-85925000D03*
%TD*%
D17*
%TO.C,J26*%
X207930000Y-64900000D03*
D11*
X210470000Y-64900000D03*
%TD*%
D18*
%TO.C,J12*%
X240000000Y-82920000D03*
D19*
X240000000Y-85460000D03*
X240000000Y-88000000D03*
X240000000Y-90540000D03*
%TD*%
D22*
%TO.C,J21*%
X163500000Y-77687500D03*
D23*
X163500000Y-74187500D03*
%TD*%
D16*
%TO.C,H2*%
X240000000Y-125000000D03*
%TD*%
D18*
%TO.C,J17*%
X240000000Y-70920000D03*
D19*
X240000000Y-73460000D03*
X240000000Y-76000000D03*
X240000000Y-78540000D03*
%TD*%
D10*
%TO.C,J15*%
X232870000Y-125000000D03*
D11*
X230330000Y-125000000D03*
X227790000Y-125000000D03*
X225250000Y-125000000D03*
%TD*%
D16*
%TO.C,H1*%
X240000000Y-65000000D03*
%TD*%
D17*
%TO.C,J1*%
X207930000Y-72420000D03*
D11*
X210470000Y-72420000D03*
%TD*%
D10*
%TO.C,J18*%
X174120000Y-124980000D03*
D11*
X171580000Y-124980000D03*
X169040000Y-124980000D03*
X166500000Y-124980000D03*
%TD*%
D14*
%TO.C,J10*%
X196250000Y-65500000D03*
D15*
X198750000Y-65500000D03*
X201250000Y-65500000D03*
%TD*%
D14*
%TO.C,J8*%
X196250000Y-76000000D03*
D15*
X198750000Y-76000000D03*
X201250000Y-76000000D03*
%TD*%
D17*
%TO.C,J5*%
X221450000Y-65020000D03*
D11*
X223990000Y-65020000D03*
X226530000Y-65020000D03*
X229070000Y-65020000D03*
X231610000Y-65020000D03*
X234150000Y-65020000D03*
%TD*%
D17*
%TO.C,J25*%
X214730000Y-65020000D03*
D11*
X217270000Y-65020000D03*
%TD*%
D10*
%TO.C,J24*%
X191330000Y-125000000D03*
D11*
X188790000Y-125000000D03*
X186250000Y-125000000D03*
X183710000Y-125000000D03*
X181170000Y-125000000D03*
X178630000Y-125000000D03*
%TD*%
D10*
%TO.C,J6*%
X191330000Y-116750000D03*
D11*
X188790000Y-116750000D03*
X186250000Y-116750000D03*
X183710000Y-116750000D03*
X181170000Y-116750000D03*
X178630000Y-116750000D03*
%TD*%
D18*
%TO.C,J13*%
X240000000Y-94920000D03*
D19*
X240000000Y-97460000D03*
X240000000Y-100000000D03*
X240000000Y-102540000D03*
%TD*%
D10*
%TO.C,J14*%
X232870000Y-116750000D03*
D11*
X230330000Y-116750000D03*
X227790000Y-116750000D03*
X225250000Y-116750000D03*
%TD*%
D24*
%TO.C,U4*%
X170600000Y-102050000D03*
X170600000Y-103000000D03*
X170600000Y-103950000D03*
X168400000Y-103950000D03*
X168400000Y-103000000D03*
X168400000Y-102050000D03*
%TD*%
D25*
%TO.C,IC7*%
X232075000Y-110700000D03*
X231425000Y-110700000D03*
X230775000Y-110700000D03*
X230125000Y-110700000D03*
X230125000Y-106800000D03*
X230775000Y-106800000D03*
X231425000Y-106800000D03*
X232075000Y-106800000D03*
%TD*%
D26*
%TO.C,IC4*%
X195250000Y-79775484D03*
X196200000Y-79775484D03*
X197150000Y-79775484D03*
X197150000Y-82275484D03*
X195250000Y-82275484D03*
%TD*%
D27*
%TO.C,R18*%
X208287500Y-84000000D03*
X206712500Y-84000000D03*
%TD*%
D28*
%TO.C,C17*%
X232312500Y-105100000D03*
X233887500Y-105100000D03*
%TD*%
D29*
%TO.C,R10*%
X175000000Y-107675000D03*
X175000000Y-109325000D03*
%TD*%
D30*
%TO.C,C19*%
X226500000Y-108287500D03*
X226500000Y-106712500D03*
%TD*%
D27*
%TO.C,R20*%
X208300000Y-82500000D03*
X206725000Y-82500000D03*
%TD*%
D30*
%TO.C,C20*%
X234000000Y-108287500D03*
X234000000Y-106712500D03*
%TD*%
D31*
%TO.C,C29*%
X202700000Y-79737984D03*
X202700000Y-81312984D03*
%TD*%
%TO.C,R13*%
X234000000Y-109712500D03*
X234000000Y-111287500D03*
%TD*%
D28*
%TO.C,C18*%
X224812500Y-105050000D03*
X226387500Y-105050000D03*
%TD*%
D31*
%TO.C,R12*%
X226500000Y-109712500D03*
X226500000Y-111287500D03*
%TD*%
D25*
%TO.C,IC6*%
X224575000Y-110750000D03*
X223925000Y-110750000D03*
X223275000Y-110750000D03*
X222625000Y-110750000D03*
X222625000Y-106850000D03*
X223275000Y-106850000D03*
X223925000Y-106850000D03*
X224575000Y-106850000D03*
%TD*%
D32*
%TO.C,IC3*%
X182050000Y-75600000D03*
X183000000Y-75600000D03*
X183950000Y-75600000D03*
X183950000Y-78200000D03*
X183000000Y-78200000D03*
X182050000Y-78200000D03*
%TD*%
D33*
%TO.C,C15*%
X176800000Y-105750000D03*
X178700000Y-105750000D03*
%TD*%
D26*
%TO.C,IC5*%
X200900000Y-82275484D03*
X199950000Y-82275484D03*
X199000000Y-82275484D03*
X199000000Y-79775484D03*
X200900000Y-79775484D03*
%TD*%
D27*
%TO.C,R21*%
X200487500Y-78025484D03*
X198912500Y-78025484D03*
%TD*%
D34*
%TO.C,U6*%
X182650000Y-107845000D03*
X182650000Y-109115000D03*
X182650000Y-110385000D03*
X182650000Y-111655000D03*
X176850000Y-111655000D03*
X176850000Y-110385000D03*
X176850000Y-109115000D03*
X176850000Y-107845000D03*
D35*
X179750000Y-109750000D03*
%TD*%
D30*
%TO.C,C22*%
X228250000Y-108287500D03*
X228250000Y-106712500D03*
%TD*%
%TO.C,C21*%
X220750000Y-108287500D03*
X220750000Y-106712500D03*
%TD*%
D27*
%TO.C,R19*%
X208287500Y-85500000D03*
X206712500Y-85500000D03*
%TD*%
D31*
%TO.C,R14*%
X220750000Y-109712500D03*
X220750000Y-111287500D03*
%TD*%
%TO.C,R15*%
X228250000Y-109712500D03*
X228250000Y-111287500D03*
%TD*%
D29*
%TO.C,R8*%
X185750000Y-76675000D03*
X185750000Y-78325000D03*
%TD*%
D36*
%TO.C,R22*%
X178325000Y-113500000D03*
X176675000Y-113500000D03*
%TD*%
M02*
