M48
; DRILL file {KiCad (6.0.0-rc1-29-g9238b27f63)} date Fri Dec  3 12:49:25 2021
; FORMAT={-:-/ absolute / inch / decimal}
; #@! TF.CreationDate,2021-12-03T12:49:25+01:00
; #@! TF.GenerationSoftware,Kicad,Pcbnew,(6.0.0-rc1-29-g9238b27f63)
; #@! TF.FileFunction,Plated,1,4,PTH
FMAT,2
INCH
; #@! TA.AperFunction,Plated,PTH,ViaDrill
T1C0.0118
; #@! TA.AperFunction,Plated,PTH,ViaDrill
T2C0.0157
; #@! TA.AperFunction,Plated,PTH,ComponentDrill
T3C0.0157
; #@! TA.AperFunction,Plated,PTH,ComponentDrill
T4C0.0236
; #@! TA.AperFunction,Plated,PTH,ComponentDrill
T5C0.0374
; #@! TA.AperFunction,Plated,PTH,ComponentDrill
T6C0.0394
; #@! TA.AperFunction,Plated,PTH,ComponentDrill
T7C0.0469
; #@! TA.AperFunction,Plated,PTH,ComponentDrill
T8C0.0531
; #@! TA.AperFunction,Plated,PTH,ComponentDrill
T9C0.1063
%
G90
G05
T1
X6.5059Y-3.435
X6.5059Y-4.0945
X6.5354Y-3.435
X6.5617Y-4.0453
X6.565Y-3.435
X6.5945Y-3.435
X6.6437Y-3.7894
X6.6535Y-3.8878
X6.6535Y-3.9469
X6.6831Y-3.7894
X6.7323Y-2.7854
X6.7618Y-4.0551
X6.7717Y-4.0059
X6.8523Y-3.9626
X6.8602Y-3.0413
X6.8602Y-3.0807
X6.8602Y-3.1201
X6.9094Y-3.4055
X6.9094Y-3.435
X6.9094Y-4.1339
X6.9193Y-3.0413
X6.9193Y-3.0807
X6.9193Y-3.1201
X6.9424Y-2.7872
X7.0571Y-3.0807
X7.1752Y-3.3563
X7.2146Y-3.1496
X7.2441Y-3.2185
X7.2441Y-3.7106
X7.2638Y-4.1339
X7.293Y-3.7993
X7.3228Y-3.7894
X7.3524Y-4.2913
X7.3819Y-3.1496
X7.3819Y-3.189
X7.3819Y-3.2283
X7.3819Y-3.2677
X7.3819Y-3.3071
X7.4016Y-4.1142
X7.4016Y-4.4094
X7.4213Y-3.1496
X7.4213Y-3.189
X7.4213Y-3.2283
X7.4213Y-3.2677
X7.4213Y-3.3071
X7.4213Y-4.2224
X7.4311Y-4.439
X7.4705Y-3.3563
X7.5591Y-3.8248
X7.5984Y-3.8839
X7.6083Y-4.2323
X7.628Y-4.2028
X7.6378Y-3.8189
X7.6476Y-4.3799
X7.6536Y-3.5531
X7.6772Y-3.3957
X7.6772Y-3.435
X7.6772Y-3.9567
X7.687Y-3.3071
X7.687Y-4.3799
X7.7461Y-3.4843
X7.7461Y-3.7992
X7.7657Y-3.3169
X7.7756Y-3.5039
X7.7756Y-3.8681
X7.7854Y-3.9173
X7.7854Y-3.9567
X7.7854Y-4.252
X7.7953Y-3.5335
X7.8051Y-4.0945
X7.815Y-3.3071
X7.8346Y-3.6122
X7.8543Y-4.1339
X7.874Y-3.3268
X7.874Y-4.2421
X7.8839Y-4.1634
X7.9035Y-3.7205
X7.9055Y-4.2421
X7.9724Y-3.3071
X8.0413Y-3.1299
X8.0413Y-4.2717
X8.0512Y-4.0453
X8.2579Y-3.3268
X8.3169Y-3.5335
X8.3268Y-3.1791
X8.3366Y-3.9212
X8.4941Y-4.1634
X8.5039Y-4.2028
X8.5236Y-3.9764
X8.5422Y-3.6516
X8.5827Y-3.5728
X8.5827Y-4.2224
X8.6811Y-3.0512
X8.685Y-3.3071
X8.685Y-3.6319
X8.6909Y-3.4843
X8.7188Y-3.0646
X8.7894Y-4.1142
X8.7992Y-4.4291
X8.9764Y-2.8051
X9.055Y-3.6027
X9.065Y-3.5728
X9.0807Y-3.5447
X9.1043Y-3.5236
X9.2028Y-3.9075
T2
X6.4567Y-3.7795
X6.7323Y-3.6909
T3
X6.3947Y-3.436
X6.3947Y-3.4695
X6.3947Y-3.503
X6.3947Y-3.5364
X6.3947Y-3.5699
X6.3947Y-3.6033
X6.3947Y-3.6368
X6.3947Y-3.6703
X6.4478Y-3.436
X6.4478Y-3.4695
X6.4478Y-3.503
X6.4478Y-3.5364
X6.4478Y-3.5699
X6.4478Y-3.6033
X6.4478Y-3.6368
X6.4478Y-3.6703
T5
X7.7264Y-2.5787
X7.7264Y-2.7854
X7.7264Y-2.9921
X7.8248Y-2.5787
X7.8248Y-2.7854
X7.8248Y-2.9921
X7.9232Y-2.5787
X7.9232Y-2.7854
X7.9232Y-2.9921
T6
X6.2469Y-3.937
X6.2992Y-4.2126
X6.2992Y-4.3126
X6.2992Y-4.4126
X6.2992Y-4.5126
X6.2992Y-4.6126
X6.3469Y-3.937
T7
X6.5528Y-4.5965
X6.5551Y-4.9205
X6.5614Y-4.2748
X6.6528Y-4.5965
X6.6551Y-4.9205
X6.6614Y-4.2748
X6.7528Y-4.5965
X6.7551Y-4.9205
X6.7614Y-4.2748
X6.8528Y-4.5965
X6.8551Y-4.9205
X7.0327Y-4.5965
X7.0327Y-4.9213
X7.1327Y-4.5965
X7.1327Y-4.9213
X7.2327Y-4.5965
X7.2327Y-4.9213
X7.3327Y-4.5965
X7.3327Y-4.9213
X7.4327Y-4.5965
X7.4327Y-4.9213
X7.5327Y-4.5965
X7.5327Y-4.9213
X7.7126Y-4.5965
X7.7126Y-4.9213
X7.8126Y-4.5965
X7.8126Y-4.9213
X7.9126Y-4.5965
X7.9126Y-4.9213
X8.0126Y-4.5965
X8.0126Y-4.9213
X8.1126Y-4.5965
X8.1126Y-4.9213
X8.1862Y-2.5551
X8.1862Y-2.8512
X8.2126Y-4.5965
X8.2126Y-4.9213
X8.2862Y-2.5551
X8.2862Y-2.8512
X8.3933Y-4.5957
X8.3933Y-4.9213
X8.4539Y-2.5598
X8.4539Y-2.8512
X8.4933Y-4.5957
X8.4933Y-4.9213
X8.5539Y-2.5598
X8.5539Y-2.8512
X8.5933Y-4.5957
X8.5933Y-4.9213
X8.6933Y-4.5957
X8.6933Y-4.9213
X8.7185Y-2.5598
X8.8185Y-2.5598
X8.8681Y-4.5965
X8.8681Y-4.9213
X8.9185Y-2.5598
X8.9681Y-4.5965
X8.9681Y-4.9213
X9.0185Y-2.5598
X9.0681Y-4.5965
X9.0681Y-4.9213
X9.1185Y-2.5598
X9.1681Y-4.5965
X9.1681Y-4.9213
X9.2185Y-2.5598
X9.4488Y-2.7921
X9.4488Y-2.8921
X9.4488Y-2.9921
X9.4488Y-3.0921
X9.4488Y-3.2646
X9.4488Y-3.3646
X9.4488Y-3.4646
X9.4488Y-3.5646
X9.4488Y-3.737
X9.4488Y-3.837
X9.4488Y-3.937
X9.4488Y-4.037
X9.4488Y-4.2094
X9.4488Y-4.3094
X9.4488Y-4.4094
X9.4488Y-4.5094
T8
X6.437Y-2.9208
X6.437Y-3.0586
T9
X6.2992Y-2.5591
X6.2992Y-4.9213
X9.4488Y-2.5591
X9.4488Y-4.9213
T4
G00X6.2919Y-3.3829
M15
G01X6.2604Y-3.3829
M16
G05
G00X6.2919Y-3.7234
M15
G01X6.2604Y-3.7234
M16
G05
G00X6.4388Y-3.3829
M15
G01X6.3797Y-3.3829
M16
G05
G00X6.4388Y-3.7234
M15
G01X6.3797Y-3.7234
M16
G05
T0
M30
