%TF.GenerationSoftware,KiCad,Pcbnew,(6.0.0-rc1-29-g9238b27f63)*%
%TF.CreationDate,2021-12-03T12:49:23+01:00*%
%TF.ProjectId,robolympics_hub,726f626f-6c79-46d7-9069-63735f687562,rev?*%
%TF.SameCoordinates,Original*%
%TF.FileFunction,Copper,L3,Inr*%
%TF.FilePolarity,Positive*%
%FSLAX46Y46*%
G04 Gerber Fmt 4.6, Leading zero omitted, Abs format (unit mm)*
G04 Created by KiCad (PCBNEW (6.0.0-rc1-29-g9238b27f63)) date 2021-12-03 12:49:23*
%MOMM*%
%LPD*%
G01*
G04 APERTURE LIST*
G04 Aperture macros list*
%AMRoundRect*
0 Rectangle with rounded corners*
0 $1 Rounding radius*
0 $2 $3 $4 $5 $6 $7 $8 $9 X,Y pos of 4 corners*
0 Add a 4 corners polygon primitive as box body*
4,1,4,$2,$3,$4,$5,$6,$7,$8,$9,$2,$3,0*
0 Add four circle primitives for the rounded corners*
1,1,$1+$1,$2,$3*
1,1,$1+$1,$4,$5*
1,1,$1+$1,$6,$7*
1,1,$1+$1,$8,$9*
0 Add four rect primitives between the rounded corners*
20,1,$1+$1,$2,$3,$4,$5,0*
20,1,$1+$1,$4,$5,$6,$7,0*
20,1,$1+$1,$6,$7,$8,$9,0*
20,1,$1+$1,$8,$9,$2,$3,0*%
G04 Aperture macros list end*
%TA.AperFunction,ComponentPad*%
%ADD10RoundRect,0.250000X0.620000X0.845000X-0.620000X0.845000X-0.620000X-0.845000X0.620000X-0.845000X0*%
%TD*%
%TA.AperFunction,ComponentPad*%
%ADD11O,1.740000X2.190000*%
%TD*%
%TA.AperFunction,ComponentPad*%
%ADD12R,1.700000X1.700000*%
%TD*%
%TA.AperFunction,ComponentPad*%
%ADD13O,1.700000X1.700000*%
%TD*%
%TA.AperFunction,ComponentPad*%
%ADD14RoundRect,0.250000X-0.600000X-0.725000X0.600000X-0.725000X0.600000X0.725000X-0.600000X0.725000X0*%
%TD*%
%TA.AperFunction,ComponentPad*%
%ADD15O,1.700000X1.950000*%
%TD*%
%TA.AperFunction,ComponentPad*%
%ADD16C,5.400000*%
%TD*%
%TA.AperFunction,ComponentPad*%
%ADD17RoundRect,0.250000X-0.620000X-0.845000X0.620000X-0.845000X0.620000X0.845000X-0.620000X0.845000X0*%
%TD*%
%TA.AperFunction,ComponentPad*%
%ADD18RoundRect,0.250000X-0.845000X0.620000X-0.845000X-0.620000X0.845000X-0.620000X0.845000X0.620000X0*%
%TD*%
%TA.AperFunction,ComponentPad*%
%ADD19O,2.190000X1.740000*%
%TD*%
%TA.AperFunction,ComponentPad*%
%ADD20C,0.650000*%
%TD*%
%TA.AperFunction,ComponentPad*%
%ADD21O,2.216000X1.108000*%
%TD*%
%TA.AperFunction,ComponentPad*%
%ADD22R,2.025000X2.025000*%
%TD*%
%TA.AperFunction,ComponentPad*%
%ADD23C,2.025000*%
%TD*%
%TA.AperFunction,ViaPad*%
%ADD24C,0.600000*%
%TD*%
%TA.AperFunction,ViaPad*%
%ADD25C,0.800000*%
%TD*%
%TA.AperFunction,Conductor*%
%ADD26C,0.600000*%
%TD*%
%TA.AperFunction,Conductor*%
%ADD27C,0.200000*%
%TD*%
%TA.AperFunction,Conductor*%
%ADD28C,0.400000*%
%TD*%
%TA.AperFunction,Conductor*%
%ADD29C,1.000000*%
%TD*%
%TA.AperFunction,Conductor*%
%ADD30C,0.250000*%
%TD*%
%TA.AperFunction,Conductor*%
%ADD31C,3.000000*%
%TD*%
G04 APERTURE END LIST*
D10*
%TO.N,GND*%
%TO.C,J19*%
X174060000Y-116750000D03*
D11*
%TO.N,I2C1_SDA*%
X171520000Y-116750000D03*
%TO.N,I2C1_SCL*%
X168980000Y-116750000D03*
%TO.N,+3V3*%
X166440000Y-116750000D03*
%TD*%
D10*
%TO.N,GND*%
%TO.C,J23*%
X208600000Y-125000000D03*
D11*
X206060000Y-125000000D03*
%TO.N,+3V3*%
X203520000Y-125000000D03*
X200980000Y-125000000D03*
%TO.N,+5V*%
X198440000Y-125000000D03*
X195900000Y-125000000D03*
%TD*%
D10*
%TO.N,GND*%
%TO.C,J4*%
X171740000Y-108580000D03*
D11*
%TO.N,Net-(J4-Pad2)*%
X169200000Y-108580000D03*
%TO.N,+5V*%
X166660000Y-108580000D03*
%TD*%
D12*
%TO.N,+3V3*%
%TO.C,J3*%
X160000000Y-107000000D03*
D13*
%TO.N,SWDIO*%
X160000000Y-109540000D03*
%TO.N,SWCLK*%
X160000000Y-112080000D03*
%TO.N,NRST*%
X160000000Y-114620000D03*
%TO.N,GND*%
X160000000Y-117160000D03*
%TD*%
D10*
%TO.N,GND*%
%TO.C,J7*%
X220810000Y-116730000D03*
D11*
%TO.N,USART2_TX*%
X218270000Y-116730000D03*
%TO.N,USART2_RX*%
X215730000Y-116730000D03*
%TO.N,+3V3*%
X213190000Y-116730000D03*
%TD*%
D14*
%TO.N,V_PWR*%
%TO.C,J9*%
X196250000Y-70750000D03*
D15*
%TO.N,TTL_DATA*%
X198750000Y-70750000D03*
%TO.N,GND*%
X201250000Y-70750000D03*
%TD*%
D16*
%TO.N,GND*%
%TO.C,H4*%
X160000000Y-125000000D03*
%TD*%
D17*
%TO.N,5V_REG*%
%TO.C,J27*%
X214730000Y-72420000D03*
D11*
%TO.N,GND*%
X217270000Y-72420000D03*
%TD*%
D10*
%TO.N,GND*%
%TO.C,J20*%
X220810000Y-125000000D03*
D11*
%TO.N,USART1_TX*%
X218270000Y-125000000D03*
%TO.N,USART1_RX*%
X215730000Y-125000000D03*
%TO.N,+3V3*%
X213190000Y-125000000D03*
%TD*%
D10*
%TO.N,GND*%
%TO.C,J22*%
X208600000Y-116750000D03*
D11*
%TO.N,GPIO_EXT_4*%
X206060000Y-116750000D03*
%TO.N,GPIO_EXT_3*%
X203520000Y-116750000D03*
%TO.N,PWM2*%
X200980000Y-116750000D03*
%TO.N,PWM1*%
X198440000Y-116750000D03*
%TO.N,+3V3*%
X195900000Y-116750000D03*
%TD*%
D12*
%TO.N,+3V3*%
%TO.C,J11*%
X158670000Y-100000000D03*
D13*
%TO.N,BOOT0*%
X161210000Y-100000000D03*
%TD*%
D18*
%TO.N,GND*%
%TO.C,J16*%
X240000000Y-106920000D03*
D19*
%TO.N,RANGE_3_ECHO*%
X240000000Y-109460000D03*
%TO.N,RANGE_3_TRIG*%
X240000000Y-112000000D03*
%TO.N,+5V*%
X240000000Y-114540000D03*
%TD*%
D16*
%TO.N,GND*%
%TO.C,H3*%
X160000000Y-65000000D03*
%TD*%
D20*
%TO.N,GND*%
%TO.C,J28*%
X163775000Y-87275000D03*
%TO.N,5V_USB*%
X163775000Y-88125000D03*
%TO.N,CC*%
X163775000Y-88975000D03*
%TO.N,USB_IN_P*%
X163775000Y-89825000D03*
%TO.N,USB_IN_N*%
X163775000Y-90675000D03*
%TO.N,CC*%
X163775000Y-91525000D03*
%TO.N,5V_USB*%
X163775000Y-92375000D03*
%TO.N,GND*%
X163775000Y-93225000D03*
X162425000Y-93225000D03*
%TO.N,5V_USB*%
X162425000Y-92375000D03*
%TO.N,CC*%
X162425000Y-91525000D03*
%TO.N,USB_IN_P*%
X162425000Y-90675000D03*
%TO.N,USB_IN_N*%
X162425000Y-89825000D03*
%TO.N,CC*%
X162425000Y-88975000D03*
%TO.N,5V_USB*%
X162425000Y-88125000D03*
%TO.N,GND*%
X162425000Y-87275000D03*
D21*
X162795000Y-85925000D03*
X162795000Y-94575000D03*
X159415000Y-94575000D03*
X159415000Y-85925000D03*
%TD*%
D17*
%TO.N,V_PWR*%
%TO.C,J26*%
X207930000Y-64900000D03*
D11*
%TO.N,GND*%
X210470000Y-64900000D03*
%TD*%
D18*
%TO.N,GND*%
%TO.C,J12*%
X240000000Y-82920000D03*
D19*
%TO.N,RANGE_1_ECHO*%
X240000000Y-85460000D03*
%TO.N,RANGE_1_TRIG*%
X240000000Y-88000000D03*
%TO.N,+5V*%
X240000000Y-90540000D03*
%TD*%
D22*
%TO.N,GND*%
%TO.C,J21*%
X163500000Y-77687500D03*
D23*
%TO.N,V_PWR*%
X163500000Y-74187500D03*
%TD*%
D16*
%TO.N,GND*%
%TO.C,H2*%
X240000000Y-125000000D03*
%TD*%
D18*
%TO.N,GND*%
%TO.C,J17*%
X240000000Y-70920000D03*
D19*
%TO.N,RANGE_4_ECHO*%
X240000000Y-73460000D03*
%TO.N,RANGE_4_TRIG*%
X240000000Y-76000000D03*
%TO.N,+5V*%
X240000000Y-78540000D03*
%TD*%
D10*
%TO.N,GND*%
%TO.C,J15*%
X232870000Y-125000000D03*
D11*
%TO.N,Net-(J15-Pad2)*%
X230330000Y-125000000D03*
%TO.N,Net-(J15-Pad3)*%
X227790000Y-125000000D03*
%TO.N,+5V*%
X225250000Y-125000000D03*
%TD*%
D16*
%TO.N,GND*%
%TO.C,H1*%
X240000000Y-65000000D03*
%TD*%
D17*
%TO.N,V_PWR*%
%TO.C,J1*%
X207930000Y-72420000D03*
D11*
%TO.N,GND*%
X210470000Y-72420000D03*
%TD*%
D10*
%TO.N,GND*%
%TO.C,J18*%
X174120000Y-124980000D03*
D11*
%TO.N,I2C1_SDA*%
X171580000Y-124980000D03*
%TO.N,I2C1_SCL*%
X169040000Y-124980000D03*
%TO.N,+3V3*%
X166500000Y-124980000D03*
%TD*%
D14*
%TO.N,V_PWR*%
%TO.C,J10*%
X196250000Y-65500000D03*
D15*
%TO.N,TTL_DATA*%
X198750000Y-65500000D03*
%TO.N,GND*%
X201250000Y-65500000D03*
%TD*%
D14*
%TO.N,V_PWR*%
%TO.C,J8*%
X196250000Y-76000000D03*
D15*
%TO.N,TTL_DATA*%
X198750000Y-76000000D03*
%TO.N,GND*%
X201250000Y-76000000D03*
%TD*%
D17*
%TO.N,GND*%
%TO.C,J5*%
X221450000Y-65020000D03*
D11*
%TO.N,SPI1_NSS*%
X223990000Y-65020000D03*
%TO.N,SPI1_MOSI*%
X226530000Y-65020000D03*
%TO.N,SPI1_MISO*%
X229070000Y-65020000D03*
%TO.N,SPI1_SCK*%
X231610000Y-65020000D03*
%TO.N,unconnected-(J5-Pad6)*%
X234150000Y-65020000D03*
%TD*%
D17*
%TO.N,5V_REG*%
%TO.C,J25*%
X214730000Y-65020000D03*
D11*
%TO.N,GND*%
X217270000Y-65020000D03*
%TD*%
D10*
%TO.N,GND*%
%TO.C,J24*%
X191330000Y-125000000D03*
D11*
%TO.N,GPIO_EXT_2*%
X188790000Y-125000000D03*
%TO.N,SPI2_MOSI*%
X186250000Y-125000000D03*
%TO.N,SPI2_MISO*%
X183710000Y-125000000D03*
%TO.N,SPI2_SCK*%
X181170000Y-125000000D03*
%TO.N,+3V3*%
X178630000Y-125000000D03*
%TD*%
D10*
%TO.N,GND*%
%TO.C,J6*%
X191330000Y-116750000D03*
D11*
%TO.N,GPIO_EXT_1*%
X188790000Y-116750000D03*
%TO.N,SPI2_MOSI*%
X186250000Y-116750000D03*
%TO.N,SPI2_MISO*%
X183710000Y-116750000D03*
%TO.N,SPI2_SCK*%
X181170000Y-116750000D03*
%TO.N,+3V3*%
X178630000Y-116750000D03*
%TD*%
D18*
%TO.N,GND*%
%TO.C,J13*%
X240000000Y-94920000D03*
D19*
%TO.N,RANGE_2_ECHO*%
X240000000Y-97460000D03*
%TO.N,RANGE_2_TRIG*%
X240000000Y-100000000D03*
%TO.N,+5V*%
X240000000Y-102540000D03*
%TD*%
D10*
%TO.N,GND*%
%TO.C,J14*%
X232870000Y-116750000D03*
D11*
%TO.N,Net-(J14-Pad2)*%
X230330000Y-116750000D03*
%TO.N,Net-(J14-Pad3)*%
X227790000Y-116750000D03*
%TO.N,+5V*%
X225250000Y-116750000D03*
%TD*%
D24*
%TO.N,GPIO_EXT_3*%
X194250000Y-111250000D03*
X193250000Y-107500000D03*
%TO.N,GPIO_EXT_4*%
X193750000Y-106750000D03*
X195250000Y-111250000D03*
%TO.N,SPI1_NSS*%
X228000000Y-71250000D03*
%TO.N,SPI2_SCK*%
X196750000Y-96500000D03*
X186750000Y-109000000D03*
%TO.N,GPIO_EXT_1*%
X188750000Y-112750000D03*
%TO.N,USART1_TX*%
X195000000Y-100500000D03*
%TO.N,USART1_RX*%
X194000000Y-97000000D03*
%TO.N,UC_TTL_DIR*%
X185241525Y-96502825D03*
%TO.N,LED1*%
X195000000Y-86250000D03*
%TO.N,ENC_B_R*%
X197750000Y-100500000D03*
%TO.N,ENC_A_R*%
X197750000Y-99500000D03*
%TO.N,LED2*%
X195000000Y-87250000D03*
%TO.N,LED3*%
X186000000Y-96250000D03*
%TO.N,USART2_TX*%
X200250000Y-105750000D03*
X200799503Y-107750000D03*
%TO.N,USART2_RX*%
X199500000Y-105000000D03*
X200000000Y-107750000D03*
%TO.N,USART6_TX*%
X200000000Y-84500000D03*
%TO.N,USART6_RX*%
X197250000Y-84250000D03*
%TO.N,PWM1*%
X192000000Y-97150500D03*
%TO.N,PWM2*%
X193000000Y-98650500D03*
%TO.N,GPIO_EXT_2*%
X188000000Y-112000000D03*
%TO.N,PWM_NEOPIXEL*%
X174048911Y-100650500D03*
%TO.N,GND*%
X223500000Y-112500000D03*
X174250000Y-79250000D03*
X171750000Y-103000000D03*
X200750000Y-94500000D03*
X202500000Y-84000000D03*
X175750000Y-77250000D03*
X174250000Y-78250000D03*
X198500000Y-84000000D03*
X175750000Y-79250000D03*
X218000000Y-107250000D03*
X165250000Y-104000000D03*
X175750000Y-78250000D03*
X174250000Y-77250000D03*
%TO.N,5V_USB*%
X166000000Y-87250000D03*
X189750000Y-85250000D03*
X182250000Y-85250000D03*
X165250000Y-87250000D03*
X167500000Y-87250000D03*
X166750000Y-87250000D03*
%TO.N,BAT_MEAS*%
X211750000Y-99599500D03*
X211250000Y-89750000D03*
%TO.N,+5V*%
X188500000Y-83000000D03*
X187500000Y-83000000D03*
X187500000Y-80000000D03*
X188500000Y-81000000D03*
X188500000Y-82000000D03*
X169000000Y-98750000D03*
X187500000Y-84000000D03*
X187500000Y-81000000D03*
X188500000Y-84000000D03*
X204250000Y-79500000D03*
X188500000Y-80000000D03*
X187500000Y-82000000D03*
%TO.N,Net-(C10-Pad2)*%
X176338000Y-70795000D03*
X171000000Y-70750000D03*
%TO.N,5V_REG*%
X179250000Y-78250000D03*
%TO.N,Net-(U4-Pad4)*%
X169000000Y-100250000D03*
%TO.N,ENC_A_L*%
X215750000Y-105750000D03*
%TO.N,ENC_B_L*%
X216000000Y-106750000D03*
%TO.N,NRST*%
X198250000Y-104000000D03*
X188000000Y-104500000D03*
X204250000Y-108500000D03*
%TO.N,SWDIO*%
X168750000Y-96250000D03*
%TO.N,SWCLK*%
X169750000Y-96250000D03*
%TO.N,RANGE_1_ECHO*%
X220750000Y-88500000D03*
X218000000Y-90750000D03*
%TO.N,RANGE_1_TRIG*%
X216971448Y-92750000D03*
X220599500Y-92250000D03*
%TO.N,RANGE_2_ECHO*%
X194400500Y-90250000D03*
X231250000Y-89500000D03*
%TO.N,RANGE_2_TRIG*%
X196750000Y-88500000D03*
X230650500Y-90034414D03*
%TO.N,RANGE_3_ECHO*%
X230250000Y-90750000D03*
X197500000Y-89000000D03*
%TO.N,RANGE_3_TRIG*%
X198000000Y-89750000D03*
X229997175Y-91508475D03*
%TO.N,RANGE_4_ECHO*%
X220500000Y-77500000D03*
%TO.N,RANGE_4_TRIG*%
X221456469Y-77840500D03*
%TO.N,Net-(D3-Pad2)*%
X220599500Y-84000000D03*
%TO.N,Net-(D4-Pad2)*%
X209750000Y-84500000D03*
%TO.N,Net-(D5-Pad2)*%
X211500000Y-80750000D03*
%TO.N,USER_BTN*%
X197500000Y-98250000D03*
X216500000Y-101000000D03*
%TO.N,Net-(IC3-Pad4)*%
X184000000Y-81750000D03*
%TO.N,Net-(IC3-Pad5)*%
X183250000Y-80000000D03*
%TO.N,+3V3*%
X233750000Y-99250000D03*
X184000000Y-94250000D03*
X172000000Y-101750000D03*
D25*
X164000000Y-96000000D03*
D24*
X175500000Y-105000000D03*
X166665989Y-102750000D03*
X184500000Y-105000000D03*
X175500000Y-87250000D03*
X195250000Y-84000000D03*
X188500000Y-107250000D03*
X175500000Y-86500000D03*
X199000000Y-91750000D03*
X223250000Y-104500000D03*
X204500000Y-102750000D03*
D25*
X171000000Y-93750000D03*
D24*
X197750000Y-108000000D03*
%TD*%
D26*
%TO.N,+5V*%
X194500000Y-128250000D02*
X195900000Y-126850000D01*
D27*
X204250000Y-79500000D02*
X204250000Y-79250000D01*
D28*
X235790000Y-90540000D02*
X223790000Y-78540000D01*
X235790000Y-110330000D02*
X235790000Y-98330000D01*
D29*
X173000000Y-84750000D02*
X175000489Y-82749511D01*
D28*
X198440000Y-125000000D02*
X195900000Y-125000000D01*
D26*
X163750000Y-125500000D02*
X166500000Y-128250000D01*
D29*
X175000489Y-82749511D02*
X181749511Y-82749511D01*
X164000000Y-106000000D02*
X164000000Y-98250000D01*
D28*
X240000000Y-102540000D02*
X235790000Y-98330000D01*
X225250000Y-116750000D02*
X225250000Y-108870000D01*
D29*
X181749511Y-82749511D02*
X182750000Y-83750000D01*
X166660000Y-108580000D02*
X166580000Y-108580000D01*
D26*
X165070480Y-110169520D02*
X165070480Y-110179520D01*
D28*
X203540000Y-78540000D02*
X221710000Y-78540000D01*
X225250000Y-125000000D02*
X225250000Y-116750000D01*
X198440000Y-125000000D02*
X199934520Y-126494520D01*
X223790000Y-78540000D02*
X221710000Y-78540000D01*
X240000000Y-114540000D02*
X235790000Y-110330000D01*
D30*
X166625000Y-96375000D02*
X165875000Y-96375000D01*
D26*
X166500000Y-128250000D02*
X194500000Y-128250000D01*
D29*
X166580000Y-108580000D02*
X164000000Y-106000000D01*
D30*
X169000000Y-98750000D02*
X166625000Y-96375000D01*
D28*
X223755480Y-126494520D02*
X225250000Y-125000000D01*
D26*
X165070480Y-110179520D02*
X163750000Y-111500000D01*
X166660000Y-108580000D02*
X165070480Y-110169520D01*
D29*
X164000000Y-98250000D02*
X165875000Y-96375000D01*
D28*
X199934520Y-126494520D02*
X223755480Y-126494520D01*
D29*
X182750000Y-83750000D02*
X187750000Y-83750000D01*
D26*
X163750000Y-111500000D02*
X163750000Y-125500000D01*
D28*
X188500000Y-80000000D02*
X189960000Y-78540000D01*
X225250000Y-108870000D02*
X235790000Y-98330000D01*
D29*
X165875000Y-96375000D02*
X173000000Y-89250000D01*
D27*
X204250000Y-79250000D02*
X203540000Y-78540000D01*
D28*
X240000000Y-90540000D02*
X235790000Y-90540000D01*
X189960000Y-78540000D02*
X203540000Y-78540000D01*
D26*
X195900000Y-126850000D02*
X195900000Y-125000000D01*
D28*
X235790000Y-98330000D02*
X235790000Y-90540000D01*
X221710000Y-78540000D02*
X240000000Y-78540000D01*
D29*
X173000000Y-89250000D02*
X173000000Y-84750000D01*
D31*
%TO.N,V_PWR*%
X163500000Y-74187500D02*
X163500000Y-69750000D01*
X169450000Y-63800000D02*
X196050480Y-63800000D01*
X163500000Y-69750000D02*
X169450000Y-63800000D01*
D28*
%TO.N,+3V3*%
X200980000Y-125000000D02*
X203520000Y-125000000D01*
X203520000Y-124370000D02*
X195900000Y-116750000D01*
D30*
X176250000Y-119250000D02*
X167750000Y-119250000D01*
D28*
X178630000Y-116750000D02*
X178630000Y-125000000D01*
X166440000Y-124920000D02*
X166500000Y-124980000D01*
D30*
X199000000Y-91750000D02*
X198000000Y-91750000D01*
X206500000Y-93250000D02*
X206500000Y-100750000D01*
X217250000Y-110500000D02*
X210750000Y-110500000D01*
X167665989Y-101750000D02*
X166665989Y-102750000D01*
X206500000Y-100750000D02*
X204500000Y-102750000D01*
D27*
X225000000Y-99250000D02*
X221500000Y-102750000D01*
D30*
X162670000Y-96000000D02*
X164000000Y-96000000D01*
D28*
X203520000Y-125000000D02*
X203520000Y-124370000D01*
D30*
X171000000Y-93750000D02*
X182000000Y-93750000D01*
X198500000Y-110500000D02*
X210750000Y-110500000D01*
X223250000Y-104500000D02*
X217250000Y-110500000D01*
X182500000Y-103000000D02*
X184500000Y-105000000D01*
X167750000Y-119250000D02*
X166440000Y-117940000D01*
X190000000Y-110500000D02*
X198500000Y-110500000D01*
X198000000Y-91750000D02*
X195750000Y-89500000D01*
D28*
X166440000Y-116750000D02*
X166440000Y-124920000D01*
D30*
X223250000Y-104500000D02*
X221500000Y-102750000D01*
X195750000Y-89500000D02*
X187250000Y-89500000D01*
X195900000Y-116750000D02*
X195900000Y-116400000D01*
X186750000Y-107250000D02*
X190000000Y-110500000D01*
X182500000Y-94250000D02*
X182500000Y-103000000D01*
X178630000Y-116750000D02*
X178630000Y-116870000D01*
D27*
X233750000Y-99250000D02*
X225000000Y-99250000D01*
D30*
X186750000Y-107250000D02*
X188500000Y-107250000D01*
D28*
X213190000Y-116730000D02*
X213190000Y-125000000D01*
D30*
X184000000Y-94250000D02*
X182500000Y-94250000D01*
X195750000Y-84500000D02*
X195250000Y-84000000D01*
D27*
X198500000Y-108750000D02*
X198500000Y-110500000D01*
D30*
X166440000Y-117940000D02*
X166440000Y-116750000D01*
X195750000Y-89500000D02*
X195750000Y-84500000D01*
X177500000Y-103000000D02*
X182500000Y-103000000D01*
X221500000Y-102750000D02*
X204500000Y-102750000D01*
X176250000Y-101750000D02*
X177500000Y-103000000D01*
X175500000Y-105000000D02*
X177500000Y-103000000D01*
X184500000Y-105000000D02*
X186750000Y-107250000D01*
X178630000Y-116750000D02*
X178630000Y-106870000D01*
X205000000Y-91750000D02*
X206500000Y-93250000D01*
X199000000Y-91750000D02*
X205000000Y-91750000D01*
X213190000Y-116730000D02*
X213190000Y-112940000D01*
X172000000Y-101750000D02*
X176250000Y-101750000D01*
X178630000Y-106870000D02*
X182500000Y-103000000D01*
D27*
X197750000Y-108000000D02*
X198500000Y-108750000D01*
D30*
X160000000Y-107000000D02*
X160000000Y-101330000D01*
X187250000Y-89500000D02*
X182500000Y-94250000D01*
X195900000Y-116400000D02*
X190000000Y-110500000D01*
X178630000Y-116870000D02*
X176250000Y-119250000D01*
X175500000Y-87250000D02*
X182500000Y-94250000D01*
X210750000Y-110500000D02*
X213190000Y-112940000D01*
X182000000Y-93750000D02*
X182500000Y-94250000D01*
X158670000Y-100000000D02*
X162670000Y-96000000D01*
X160000000Y-101330000D02*
X158670000Y-100000000D01*
X172000000Y-101750000D02*
X167665989Y-101750000D01*
%TD*%
%TA.AperFunction,Conductor*%
%TO.N,+3V3*%
G36*
X181692121Y-86020002D02*
G01*
X181738614Y-86073658D01*
X181750000Y-86126000D01*
X181750000Y-88624000D01*
X181729998Y-88692121D01*
X181676342Y-88738614D01*
X181624000Y-88750000D01*
X174876000Y-88750000D01*
X174807879Y-88729998D01*
X174761386Y-88676342D01*
X174750000Y-88624000D01*
X174750000Y-86126000D01*
X174770002Y-86057879D01*
X174823658Y-86011386D01*
X174876000Y-86000000D01*
X181624000Y-86000000D01*
X181692121Y-86020002D01*
G37*
%TD.AperFunction*%
%TD*%
%TA.AperFunction,Conductor*%
%TO.N,5V_REG*%
G36*
X215942121Y-60274002D02*
G01*
X215988614Y-60327658D01*
X216000000Y-60380000D01*
X216000000Y-74124000D01*
X215979998Y-74192121D01*
X215926342Y-74238614D01*
X215874000Y-74250000D01*
X212376000Y-74250000D01*
X212307879Y-74229998D01*
X212261386Y-74176342D01*
X212250000Y-74124000D01*
X212250000Y-60380000D01*
X212270002Y-60311879D01*
X212323658Y-60265386D01*
X212376000Y-60254000D01*
X215874000Y-60254000D01*
X215942121Y-60274002D01*
G37*
%TD.AperFunction*%
%TD*%
%TA.AperFunction,Conductor*%
%TO.N,+5V*%
G36*
X188942121Y-79270002D02*
G01*
X188988614Y-79323658D01*
X189000000Y-79376000D01*
X189000000Y-84624000D01*
X188979998Y-84692121D01*
X188926342Y-84738614D01*
X188874000Y-84750000D01*
X185126000Y-84750000D01*
X185057879Y-84729998D01*
X185011386Y-84676342D01*
X185000000Y-84624000D01*
X185000000Y-79376000D01*
X185020002Y-79307879D01*
X185073658Y-79261386D01*
X185126000Y-79250000D01*
X188874000Y-79250000D01*
X188942121Y-79270002D01*
G37*
%TD.AperFunction*%
%TD*%
%TA.AperFunction,Conductor*%
%TO.N,5V_USB*%
G36*
X167942121Y-84520002D02*
G01*
X167988614Y-84573658D01*
X168000000Y-84626000D01*
X168000000Y-88000000D01*
X164750000Y-88000000D01*
X164750000Y-84626000D01*
X164770002Y-84557879D01*
X164823658Y-84511386D01*
X164876000Y-84500000D01*
X167874000Y-84500000D01*
X167942121Y-84520002D01*
G37*
%TD.AperFunction*%
%TD*%
%TA.AperFunction,Conductor*%
%TO.N,V_PWR*%
G36*
X209250000Y-74124000D02*
G01*
X209229998Y-74192121D01*
X209176342Y-74238614D01*
X209124000Y-74250000D01*
X205126000Y-74250000D01*
X205057879Y-74229998D01*
X205011386Y-74176342D01*
X205000000Y-74124000D01*
X205000000Y-61500000D01*
X209250000Y-61500000D01*
X209250000Y-74124000D01*
G37*
%TD.AperFunction*%
%TD*%
%TA.AperFunction,Conductor*%
%TO.N,5V_USB*%
G36*
X161941255Y-87520002D02*
G01*
X161973096Y-87549296D01*
X162045180Y-87643238D01*
X162045183Y-87643241D01*
X162050209Y-87649791D01*
X162159982Y-87734024D01*
X162167611Y-87737184D01*
X162280189Y-87783815D01*
X162280193Y-87783816D01*
X162287817Y-87786974D01*
X162295997Y-87788051D01*
X162296001Y-87788052D01*
X162416812Y-87803957D01*
X162425000Y-87805035D01*
X162433188Y-87803957D01*
X162553999Y-87788052D01*
X162554003Y-87788051D01*
X162562183Y-87786974D01*
X162569807Y-87783816D01*
X162569811Y-87783815D01*
X162682389Y-87737184D01*
X162690018Y-87734024D01*
X162799791Y-87649791D01*
X162804817Y-87643241D01*
X162804820Y-87643238D01*
X162876904Y-87549296D01*
X162934242Y-87507429D01*
X162976866Y-87500000D01*
X163223134Y-87500000D01*
X163291255Y-87520002D01*
X163323096Y-87549296D01*
X163395180Y-87643238D01*
X163395183Y-87643241D01*
X163400209Y-87649791D01*
X163509982Y-87734024D01*
X163517611Y-87737184D01*
X163630189Y-87783815D01*
X163630193Y-87783816D01*
X163637817Y-87786974D01*
X163645997Y-87788051D01*
X163646001Y-87788052D01*
X163766812Y-87803957D01*
X163775000Y-87805035D01*
X163783188Y-87803957D01*
X163903999Y-87788052D01*
X163904003Y-87788051D01*
X163912183Y-87786974D01*
X163919807Y-87783816D01*
X163919811Y-87783815D01*
X164032389Y-87737184D01*
X164040018Y-87734024D01*
X164149791Y-87649791D01*
X164154817Y-87643241D01*
X164154820Y-87643238D01*
X164226904Y-87549296D01*
X164284242Y-87507429D01*
X164326866Y-87500000D01*
X168000000Y-87500000D01*
X168000000Y-92624000D01*
X167979998Y-92692121D01*
X167926342Y-92738614D01*
X167874000Y-92750000D01*
X164026510Y-92750000D01*
X163978293Y-92740409D01*
X163919811Y-92716185D01*
X163919807Y-92716184D01*
X163912183Y-92713026D01*
X163904003Y-92711949D01*
X163903999Y-92711948D01*
X163783188Y-92696043D01*
X163775000Y-92694965D01*
X163637817Y-92713026D01*
X163571708Y-92740409D01*
X163523490Y-92750000D01*
X162676510Y-92750000D01*
X162628293Y-92740409D01*
X162569811Y-92716185D01*
X162569807Y-92716184D01*
X162562183Y-92713026D01*
X162554003Y-92711949D01*
X162553999Y-92711948D01*
X162433188Y-92696043D01*
X162425000Y-92694965D01*
X162287817Y-92713026D01*
X162221708Y-92740409D01*
X162173490Y-92750000D01*
X161126000Y-92750000D01*
X161057879Y-92729998D01*
X161011386Y-92676342D01*
X161000000Y-92624000D01*
X161000000Y-91525000D01*
X161894965Y-91525000D01*
X161913026Y-91662183D01*
X161965976Y-91790017D01*
X162008093Y-91844904D01*
X162045180Y-91893238D01*
X162045183Y-91893241D01*
X162050209Y-91899791D01*
X162159982Y-91984024D01*
X162167611Y-91987184D01*
X162280189Y-92033815D01*
X162280193Y-92033816D01*
X162287817Y-92036974D01*
X162295997Y-92038051D01*
X162296001Y-92038052D01*
X162416812Y-92053957D01*
X162425000Y-92055035D01*
X162433188Y-92053957D01*
X162553999Y-92038052D01*
X162554003Y-92038051D01*
X162562183Y-92036974D01*
X162569807Y-92033816D01*
X162569811Y-92033815D01*
X162682389Y-91987184D01*
X162690018Y-91984024D01*
X162799791Y-91899791D01*
X162804817Y-91893241D01*
X162804820Y-91893238D01*
X162841907Y-91844904D01*
X162884024Y-91790017D01*
X162936974Y-91662183D01*
X162955035Y-91525000D01*
X163244965Y-91525000D01*
X163263026Y-91662183D01*
X163315976Y-91790017D01*
X163358093Y-91844904D01*
X163395180Y-91893238D01*
X163395183Y-91893241D01*
X163400209Y-91899791D01*
X163509982Y-91984024D01*
X163517611Y-91987184D01*
X163630189Y-92033815D01*
X163630193Y-92033816D01*
X163637817Y-92036974D01*
X163645997Y-92038051D01*
X163646001Y-92038052D01*
X163766812Y-92053957D01*
X163775000Y-92055035D01*
X163783188Y-92053957D01*
X163903999Y-92038052D01*
X163904003Y-92038051D01*
X163912183Y-92036974D01*
X163919807Y-92033816D01*
X163919811Y-92033815D01*
X164032389Y-91987184D01*
X164040018Y-91984024D01*
X164149791Y-91899791D01*
X164154817Y-91893241D01*
X164154820Y-91893238D01*
X164191907Y-91844904D01*
X164234024Y-91790017D01*
X164286974Y-91662183D01*
X164305035Y-91525000D01*
X164286974Y-91387817D01*
X164234024Y-91259983D01*
X164170120Y-91176702D01*
X164144520Y-91110484D01*
X164158784Y-91040936D01*
X164170115Y-91023305D01*
X164234024Y-90940017D01*
X164286974Y-90812183D01*
X164305035Y-90675000D01*
X164286974Y-90537817D01*
X164234024Y-90409983D01*
X164170120Y-90326702D01*
X164144520Y-90260484D01*
X164158784Y-90190936D01*
X164170115Y-90173305D01*
X164234024Y-90090017D01*
X164286974Y-89962183D01*
X164305035Y-89825000D01*
X164286974Y-89687817D01*
X164234024Y-89559983D01*
X164170120Y-89476702D01*
X164144520Y-89410484D01*
X164158784Y-89340936D01*
X164170115Y-89323305D01*
X164234024Y-89240017D01*
X164286974Y-89112183D01*
X164305035Y-88975000D01*
X164286974Y-88837817D01*
X164234024Y-88709983D01*
X164156078Y-88608402D01*
X164154820Y-88606762D01*
X164154817Y-88606759D01*
X164149791Y-88600209D01*
X164116251Y-88574472D01*
X164046568Y-88521002D01*
X164040018Y-88515976D01*
X164032389Y-88512816D01*
X163919811Y-88466185D01*
X163919807Y-88466184D01*
X163912183Y-88463026D01*
X163904003Y-88461949D01*
X163903999Y-88461948D01*
X163783188Y-88446043D01*
X163775000Y-88444965D01*
X163637817Y-88463026D01*
X163509983Y-88515976D01*
X163400209Y-88600209D01*
X163315976Y-88709983D01*
X163263026Y-88837817D01*
X163244965Y-88975000D01*
X163263026Y-89112183D01*
X163315976Y-89240017D01*
X163379880Y-89323298D01*
X163405480Y-89389516D01*
X163391216Y-89459064D01*
X163379885Y-89476695D01*
X163315976Y-89559983D01*
X163263026Y-89687817D01*
X163244965Y-89825000D01*
X163263026Y-89962183D01*
X163315976Y-90090017D01*
X163379880Y-90173298D01*
X163405480Y-90239516D01*
X163391216Y-90309064D01*
X163379885Y-90326695D01*
X163315976Y-90409983D01*
X163263026Y-90537817D01*
X163244965Y-90675000D01*
X163263026Y-90812183D01*
X163315976Y-90940017D01*
X163379880Y-91023298D01*
X163405480Y-91089516D01*
X163391216Y-91159064D01*
X163379885Y-91176695D01*
X163315976Y-91259983D01*
X163263026Y-91387817D01*
X163244965Y-91525000D01*
X162955035Y-91525000D01*
X162936974Y-91387817D01*
X162884024Y-91259983D01*
X162820120Y-91176702D01*
X162794520Y-91110484D01*
X162808784Y-91040936D01*
X162820115Y-91023305D01*
X162884024Y-90940017D01*
X162936974Y-90812183D01*
X162955035Y-90675000D01*
X162936974Y-90537817D01*
X162884024Y-90409983D01*
X162820120Y-90326702D01*
X162794520Y-90260484D01*
X162808784Y-90190936D01*
X162820115Y-90173305D01*
X162884024Y-90090017D01*
X162936974Y-89962183D01*
X162955035Y-89825000D01*
X162936974Y-89687817D01*
X162884024Y-89559983D01*
X162820120Y-89476702D01*
X162794520Y-89410484D01*
X162808784Y-89340936D01*
X162820115Y-89323305D01*
X162884024Y-89240017D01*
X162936974Y-89112183D01*
X162955035Y-88975000D01*
X162936974Y-88837817D01*
X162884024Y-88709983D01*
X162806078Y-88608402D01*
X162804820Y-88606762D01*
X162804817Y-88606759D01*
X162799791Y-88600209D01*
X162766251Y-88574472D01*
X162696568Y-88521002D01*
X162690018Y-88515976D01*
X162682389Y-88512816D01*
X162569811Y-88466185D01*
X162569807Y-88466184D01*
X162562183Y-88463026D01*
X162554003Y-88461949D01*
X162553999Y-88461948D01*
X162433188Y-88446043D01*
X162425000Y-88444965D01*
X162287817Y-88463026D01*
X162159983Y-88515976D01*
X162050209Y-88600209D01*
X161965976Y-88709983D01*
X161913026Y-88837817D01*
X161894965Y-88975000D01*
X161913026Y-89112183D01*
X161965976Y-89240017D01*
X162029880Y-89323298D01*
X162055480Y-89389516D01*
X162041216Y-89459064D01*
X162029885Y-89476695D01*
X161965976Y-89559983D01*
X161913026Y-89687817D01*
X161894965Y-89825000D01*
X161913026Y-89962183D01*
X161965976Y-90090017D01*
X162029880Y-90173298D01*
X162055480Y-90239516D01*
X162041216Y-90309064D01*
X162029885Y-90326695D01*
X161965976Y-90409983D01*
X161913026Y-90537817D01*
X161894965Y-90675000D01*
X161913026Y-90812183D01*
X161965976Y-90940017D01*
X162029880Y-91023298D01*
X162055480Y-91089516D01*
X162041216Y-91159064D01*
X162029885Y-91176695D01*
X161965976Y-91259983D01*
X161913026Y-91387817D01*
X161894965Y-91525000D01*
X161000000Y-91525000D01*
X161000000Y-87626000D01*
X161020002Y-87557879D01*
X161073658Y-87511386D01*
X161126000Y-87500000D01*
X161873134Y-87500000D01*
X161941255Y-87520002D01*
G37*
%TD.AperFunction*%
%TD*%
%TA.AperFunction,Conductor*%
%TO.N,V_PWR*%
G36*
X209192121Y-60274002D02*
G01*
X209238614Y-60327658D01*
X209250000Y-60380000D01*
X209250000Y-67000000D01*
X192376000Y-67000000D01*
X192307879Y-66979998D01*
X192261386Y-66926342D01*
X192250000Y-66874000D01*
X192250000Y-65677659D01*
X197645500Y-65677659D01*
X197660493Y-65834806D01*
X197719823Y-66037042D01*
X197722573Y-66042381D01*
X197773180Y-66140640D01*
X197816324Y-66224410D01*
X197838991Y-66253266D01*
X197942808Y-66385432D01*
X197942812Y-66385436D01*
X197946514Y-66390149D01*
X197951044Y-66394080D01*
X197951045Y-66394081D01*
X198101165Y-66524350D01*
X198101170Y-66524354D01*
X198105696Y-66528281D01*
X198288126Y-66633819D01*
X198487222Y-66702957D01*
X198493155Y-66703817D01*
X198493158Y-66703818D01*
X198689860Y-66732338D01*
X198689863Y-66732338D01*
X198695800Y-66733199D01*
X198906333Y-66723455D01*
X198912157Y-66722051D01*
X198912160Y-66722051D01*
X199105393Y-66675482D01*
X199105395Y-66675481D01*
X199111226Y-66674076D01*
X199116684Y-66671594D01*
X199116688Y-66671593D01*
X199231294Y-66619484D01*
X199303084Y-66586843D01*
X199474986Y-66464904D01*
X199620728Y-66312660D01*
X199678959Y-66222476D01*
X199731800Y-66140640D01*
X199731801Y-66140637D01*
X199735052Y-66135603D01*
X199813834Y-65940122D01*
X199854229Y-65733271D01*
X199854500Y-65727730D01*
X199854500Y-65677659D01*
X200145500Y-65677659D01*
X200160493Y-65834806D01*
X200219823Y-66037042D01*
X200222573Y-66042381D01*
X200273180Y-66140640D01*
X200316324Y-66224410D01*
X200338991Y-66253266D01*
X200442808Y-66385432D01*
X200442812Y-66385436D01*
X200446514Y-66390149D01*
X200451044Y-66394080D01*
X200451045Y-66394081D01*
X200601165Y-66524350D01*
X200601170Y-66524354D01*
X200605696Y-66528281D01*
X200788126Y-66633819D01*
X200987222Y-66702957D01*
X200993155Y-66703817D01*
X200993158Y-66703818D01*
X201189860Y-66732338D01*
X201189863Y-66732338D01*
X201195800Y-66733199D01*
X201406333Y-66723455D01*
X201412157Y-66722051D01*
X201412160Y-66722051D01*
X201605393Y-66675482D01*
X201605395Y-66675481D01*
X201611226Y-66674076D01*
X201616684Y-66671594D01*
X201616688Y-66671593D01*
X201731294Y-66619484D01*
X201803084Y-66586843D01*
X201974986Y-66464904D01*
X202120728Y-66312660D01*
X202178959Y-66222476D01*
X202231800Y-66140640D01*
X202231801Y-66140637D01*
X202235052Y-66135603D01*
X202313834Y-65940122D01*
X202354229Y-65733271D01*
X202354500Y-65727730D01*
X202354500Y-65322341D01*
X202339507Y-65165194D01*
X202280177Y-64962958D01*
X202229415Y-64864397D01*
X202186422Y-64780921D01*
X202186420Y-64780918D01*
X202183676Y-64775590D01*
X202114355Y-64687340D01*
X202057192Y-64614568D01*
X202057188Y-64614564D01*
X202053486Y-64609851D01*
X202001534Y-64564769D01*
X201898835Y-64475650D01*
X201898830Y-64475646D01*
X201894304Y-64471719D01*
X201711874Y-64366181D01*
X201512778Y-64297043D01*
X201506845Y-64296183D01*
X201506842Y-64296182D01*
X201310140Y-64267662D01*
X201310137Y-64267662D01*
X201304200Y-64266801D01*
X201093667Y-64276545D01*
X201087843Y-64277949D01*
X201087840Y-64277949D01*
X200894607Y-64324518D01*
X200894605Y-64324519D01*
X200888774Y-64325924D01*
X200883316Y-64328406D01*
X200883312Y-64328407D01*
X200826646Y-64354172D01*
X200696916Y-64413157D01*
X200525014Y-64535096D01*
X200379272Y-64687340D01*
X200376021Y-64692375D01*
X200318848Y-64780921D01*
X200264948Y-64864397D01*
X200186166Y-65059878D01*
X200145771Y-65266729D01*
X200145500Y-65272270D01*
X200145500Y-65677659D01*
X199854500Y-65677659D01*
X199854500Y-65322341D01*
X199839507Y-65165194D01*
X199780177Y-64962958D01*
X199729415Y-64864397D01*
X199686422Y-64780921D01*
X199686420Y-64780918D01*
X199683676Y-64775590D01*
X199614355Y-64687340D01*
X199557192Y-64614568D01*
X199557188Y-64614564D01*
X199553486Y-64609851D01*
X199501534Y-64564769D01*
X199398835Y-64475650D01*
X199398830Y-64475646D01*
X199394304Y-64471719D01*
X199211874Y-64366181D01*
X199012778Y-64297043D01*
X199006845Y-64296183D01*
X199006842Y-64296182D01*
X198810140Y-64267662D01*
X198810137Y-64267662D01*
X198804200Y-64266801D01*
X198593667Y-64276545D01*
X198587843Y-64277949D01*
X198587840Y-64277949D01*
X198394607Y-64324518D01*
X198394605Y-64324519D01*
X198388774Y-64325924D01*
X198383316Y-64328406D01*
X198383312Y-64328407D01*
X198326646Y-64354172D01*
X198196916Y-64413157D01*
X198025014Y-64535096D01*
X197879272Y-64687340D01*
X197876021Y-64692375D01*
X197818848Y-64780921D01*
X197764948Y-64864397D01*
X197686166Y-65059878D01*
X197645771Y-65266729D01*
X197645500Y-65272270D01*
X197645500Y-65677659D01*
X192250000Y-65677659D01*
X192250000Y-60380000D01*
X192270002Y-60311879D01*
X192323658Y-60265386D01*
X192376000Y-60254000D01*
X209124000Y-60254000D01*
X209192121Y-60274002D01*
G37*
%TD.AperFunction*%
%TD*%
%TA.AperFunction,Conductor*%
%TO.N,V_PWR*%
G36*
X197500000Y-77374000D02*
G01*
X197479998Y-77442121D01*
X197426342Y-77488614D01*
X197374000Y-77500000D01*
X193376000Y-77500000D01*
X193307879Y-77479998D01*
X193261386Y-77426342D01*
X193250000Y-77374000D01*
X193250000Y-64000000D01*
X197500000Y-64000000D01*
X197500000Y-77374000D01*
G37*
%TD.AperFunction*%
%TD*%
M02*
